<svg width="50" height="21" viewBox="0 0 50 21" fill="none" xmlns="http://www.w3.org/2000/svg">
<path id="Vector" fill-rule="evenodd" clip-rule="evenodd" d="M2.77778 0.629629C4.3119 0.629629 5.55556 1.87328 5.55556 3.40741V13.284C5.55556 13.8569 5.78318 14.4065 6.18835 14.8116C6.59352 15.2168 7.14305 15.4444 7.71605 15.4444H42.284C42.8569 15.4444 43.4065 15.2168 43.8116 14.8116C44.2168 14.4065 44.4444 13.8569 44.4444 13.284V3.40741C44.4444 1.87328 45.6881 0.629629 47.2222 0.629629C48.7563 0.629629 50 1.87328 50 3.40741V13.284C50 15.3304 49.1871 17.293 47.74 18.74C46.293 20.1871 44.3304 21 42.284 21H7.71605C5.66962 21 3.70702 20.1871 2.25998 18.74C0.812938 17.293 0 15.3304 0 13.284V3.40741C0 1.87328 1.24365 0.629629 2.77778 0.629629Z" fill="#BDB4BA"/>
</svg>
