<svg width="32" height="36" viewBox="0 0 32 36" fill="none" xmlns="http://www.w3.org/2000/svg">
<g id="Vector">
<path fill-rule="evenodd" clip-rule="evenodd" d="M30.3099 17.9025C29.2251 18.9872 27.4663 18.9872 26.3815 17.9025L16 7.52097L5.61851 17.9025C4.53372 18.9872 2.77493 18.9872 1.69014 17.9025C0.60535 16.8177 0.60535 15.0589 1.69014 13.9741L14.0358 1.62841C15.1206 0.543621 16.8794 0.543621 17.9642 1.62841L30.3099 13.9741C31.3947 15.0589 31.3947 16.8177 30.3099 17.9025Z" fill="#BDB4BA"/>
<path fill-rule="evenodd" clip-rule="evenodd" d="M16 36C14.4659 36 13.2222 34.7563 13.2222 33.2222L13.2222 3.59259C13.2222 2.05847 14.4659 0.814816 16 0.814816C17.5341 0.814816 18.7778 2.05847 18.7778 3.59259L18.7778 33.2222C18.7778 34.7563 17.5341 36 16 36Z" fill="#BDB4BA"/>
</g>
</svg>
