<svg width="50" height="50" viewBox="0 0 50 50" fill="none" xmlns="http://www.w3.org/2000/svg">
<g id="Vector">
<path fill-rule="evenodd" clip-rule="evenodd" d="M2.77778 29.6296C4.3119 29.6296 5.55556 30.8733 5.55556 32.4074V42.284C5.55556 42.8569 5.78318 43.4065 6.18835 43.8116C6.59352 44.2168 7.14305 44.4444 7.71605 44.4444H42.284C42.8569 44.4444 43.4065 44.2168 43.8116 43.8116C44.2168 43.4065 44.4444 42.8569 44.4444 42.284V32.4074C44.4444 30.8733 45.6881 29.6296 47.2222 29.6296C48.7563 29.6296 50 30.8733 50 32.4074V42.284C50 44.3304 49.1871 46.293 47.74 47.74C46.293 49.1871 44.3304 50 42.284 50H7.71605C5.66963 50 3.70702 49.1871 2.25998 47.74C0.812938 46.293 0 44.3304 0 42.284V32.4074C0 30.8733 1.24365 29.6296 2.77778 29.6296Z" fill="#BDB4BA"/>
<path fill-rule="evenodd" clip-rule="evenodd" d="M10.6901 18.0975C11.7749 17.0128 13.5337 17.0128 14.6185 18.0975L25 28.479L35.3815 18.0975C36.4663 17.0128 38.2251 17.0128 39.3099 18.0975C40.3947 19.1823 40.3947 20.9411 39.3099 22.0259L26.9642 34.3716C25.8794 35.4564 24.1206 35.4564 23.0358 34.3716L10.6901 22.0259C9.60534 20.9411 9.60534 19.1823 10.6901 18.0975Z" fill="#BDB4BA"/>
<path fill-rule="evenodd" clip-rule="evenodd" d="M25 0C26.5341 0 27.7778 1.24365 27.7778 2.77778V32.4074C27.7778 33.9415 26.5341 35.1852 25 35.1852C23.4659 35.1852 22.2222 33.9415 22.2222 32.4074V2.77778C22.2222 1.24365 23.4659 0 25 0Z" fill="#BDB4BA"/>
</g>
</svg>
